<svg width="21" height="25" viewBox="0 0 21 25" fill="none" xmlns="http://www.w3.org/2000/svg">
<path d="M19.2012 19.8242C19.691 19.8242 20.0882 19.4304 20.0882 18.9373V1.51198C20.0882 1.02216 19.691 0.625 19.2012 0.625H4.07282C2.32864 0.63162 0.91542 2.04153 0.912109 3.78571V21.2143C0.912109 22.9585 2.32864 24.375 4.07282 24.375H19.2012C19.691 24.375 20.0882 23.9745 20.0882 23.488C20.0882 22.9982 19.691 22.5944 19.2012 22.5944H19.0622V19.8242H19.2012ZM14.892 6.55313H6.10825C5.61842 6.55313 5.22127 6.15928 5.22127 5.66614C5.22127 5.18294 5.61842 4.77916 6.10825 4.77916H14.892C15.3819 4.77916 15.779 5.17963 15.779 5.66614C15.779 6.15928 15.3819 6.55313 14.892 6.55313ZM17.2882 22.5977H4.07282C3.30829 22.5977 2.68608 21.9821 2.68608 21.2143C2.68608 20.4464 3.30829 19.8242 4.07282 19.8242H17.2882V22.5977Z" fill="#2E59A8"/>
</svg>
