<svg width="21" height="21" viewBox="0 0 21 21" fill="none" xmlns="http://www.w3.org/2000/svg">
<path d="M17.7918 3.20834H16.7502V1.12501C16.7502 0.848743 16.6404 0.583791 16.4451 0.388441C16.2497 0.19309 15.9848 0.0833435 15.7085 0.0833435C15.4322 0.0833435 15.1673 0.19309 14.9719 0.388441C14.7766 0.583791 14.6668 0.848743 14.6668 1.12501V3.20834H6.3335V1.12501C6.3335 0.848743 6.22375 0.583791 6.0284 0.388441C5.83305 0.19309 5.5681 0.0833435 5.29183 0.0833435C5.01556 0.0833435 4.75061 0.19309 4.55526 0.388441C4.35991 0.583791 4.25016 0.848743 4.25016 1.12501V3.20834H3.2085C2.37969 3.20834 1.58484 3.53758 0.998788 4.12364C0.412736 4.70969 0.0834961 5.50454 0.0834961 6.33334V7.37501H20.9168V6.33334C20.9168 5.50454 20.5876 4.70969 20.0015 4.12364C19.4155 3.53758 18.6206 3.20834 17.7918 3.20834Z" fill="#2E59A8"/>
<path d="M0.0834961 17.7917C0.0834961 18.6205 0.412736 19.4153 0.998788 20.0014C1.58484 20.5874 2.37969 20.9167 3.2085 20.9167H17.7918C18.6206 20.9167 19.4155 20.5874 20.0015 20.0014C20.5876 19.4153 20.9168 18.6205 20.9168 17.7917V9.45834H0.0834961V17.7917Z" fill="#2E59A8"/>
</svg>
