<svg width="15" height="15" viewBox="0 0 15 15" fill="none" xmlns="http://www.w3.org/2000/svg">
<g clip-path="url(#clip0_116_78)">
<path d="M6.18153 4.54095C2.78915 4.54095 3.08524e-05 6.87378 3.08524e-05 9.74133C3.08524e-05 10.8876 0.44464 12.0525 1.26 12.9554L0.108605 14.2712C-0.00468595 14.4008 -0.0321664 14.5849 0.039523 14.7419C0.110773 14.899 0.266984 14.9999 0.439484 14.9999H6.62098C9.12572 14.9999 12.363 12.843 12.363 9.74133C12.363 6.87378 9.5739 4.54095 6.18153 4.54095ZM3.51557 10.5468C3.03106 10.5468 2.63669 10.1524 2.63669 9.66794C2.63669 9.18342 3.03109 8.78906 3.51557 8.78906C4.00005 8.78906 4.39444 9.18345 4.39444 9.66794C4.39447 10.1524 4.00008 10.5468 3.51557 10.5468ZM6.18153 10.5468C5.69701 10.5468 5.30265 10.1524 5.30265 9.66794C5.30265 9.18342 5.69704 8.78906 6.18153 8.78906C6.66601 8.78906 7.0604 9.18345 7.0604 9.66794C7.0604 10.1524 6.66604 10.5468 6.18153 10.5468ZM8.84748 10.5468C8.36297 10.5468 7.96861 10.1524 7.96861 9.66794C7.96861 9.18342 8.363 8.78906 8.84748 8.78906C9.33196 8.78906 9.72636 9.18345 9.72636 9.66794C9.72636 10.1524 9.33199 10.5468 8.84748 10.5468Z" fill="white"/>
<path d="M14.8937 8.94223L13.859 7.73506C14.5976 6.90168 14.9997 5.88543 14.9997 4.83405C14.9997 2.16865 12.4369 0.000183105 9.28694 0.000183105C6.43855 0.000183105 4.0186 1.77525 3.59131 4.08563C4.38607 3.81557 5.27737 3.66206 6.18156 3.66206C10.0298 3.66206 13.1915 6.3499 13.2377 9.66792H14.5603C14.9356 9.66795 15.1372 9.22592 14.8937 8.94223Z" fill="white"/>
</g>
<defs>
<clipPath id="clip0_116_78">
<rect width="15" height="15" fill="white"/>
</clipPath>
</defs>
</svg>
