<svg width="25" height="17" viewBox="0 0 25 17" fill="none" xmlns="http://www.w3.org/2000/svg">
<path fill-rule="evenodd" clip-rule="evenodd" d="M0.976562 2.67109L11.6414 7.41328C11.9122 7.53154 12.2045 7.59259 12.5 7.59259C12.7955 7.59259 13.0878 7.53154 13.3586 7.41328C15.1859 6.61641 21.5148 3.79297 24.0234 2.67266V14.8562C24.0234 15.426 23.7971 15.9725 23.3942 16.3754C22.9913 16.7783 22.4448 17.0047 21.875 17.0047H3.125C2.5552 17.0047 2.00874 16.7783 1.60583 16.3754C1.20292 15.9725 0.976563 15.426 0.976562 14.8562V2.67109ZM4.6875 13.7734H8.67891C8.83431 13.7734 8.98334 13.7117 9.09323 13.6018C9.20311 13.4919 9.26484 13.3429 9.26484 13.1875C9.26484 13.0321 9.20311 12.8831 9.09323 12.7732C8.98334 12.6633 8.83431 12.6016 8.67891 12.6016H4.6875C4.5321 12.6016 4.38306 12.6633 4.27318 12.7732C4.1633 12.8831 4.10156 13.0321 4.10156 13.1875C4.10156 13.3429 4.1633 13.4919 4.27318 13.6018C4.38306 13.7117 4.5321 13.7734 4.6875 13.7734ZM4.6875 11.0391H10.675C10.8304 11.0391 10.9794 10.9773 11.0893 10.8674C11.1992 10.7576 11.2609 10.6085 11.2609 10.4531C11.2609 10.2977 11.1992 10.1487 11.0893 10.0388C10.9794 9.92892 10.8304 9.86719 10.675 9.86719H4.6875C4.5321 9.86719 4.38306 9.92892 4.27318 10.0388C4.1633 10.1487 4.10156 10.2977 4.10156 10.4531C4.10156 10.6085 4.1633 10.7576 4.27318 10.8674C4.38306 10.9773 4.5321 11.0391 4.6875 11.0391ZM1.12891 1.45625C1.28825 1.0569 1.56355 0.714424 1.91933 0.472973C2.2751 0.231521 2.69503 0.10216 3.125 0.101562H21.875C22.305 0.10216 22.7249 0.231521 23.0807 0.472973C23.4364 0.714424 23.7117 1.0569 23.8711 1.45625L12.8906 6.33906C12.7674 6.39279 12.6344 6.42052 12.5 6.42052C12.3656 6.42052 12.2326 6.39279 12.1094 6.33906L1.12891 1.45625Z" fill="white"/>
</svg>
