<svg width="11" height="21" viewBox="0 0 11 21" fill="none" xmlns="http://www.w3.org/2000/svg">
<path d="M3.10001 11.7999C3.02501 11.7999 1.37501 11.7999 0.625006 11.7999C0.225006 11.7999 0.100006 11.6499 0.100006 11.2749C0.100006 10.2749 0.100006 9.2499 0.100006 8.2499C0.100006 7.8499 0.250006 7.7249 0.625006 7.7249H3.10001C3.10001 7.6499 3.10001 6.1999 3.10001 5.5249C3.10001 4.5249 3.27501 3.5749 3.77501 2.6999C4.30001 1.7999 5.05001 1.1999 6.00001 0.849902C6.62501 0.624902 7.25001 0.524902 7.92501 0.524902H10.375C10.725 0.524902 10.875 0.674902 10.875 1.0249V3.8749C10.875 4.2249 10.725 4.3749 10.375 4.3749C9.70001 4.3749 9.02501 4.3749 8.35001 4.3999C7.67501 4.3999 7.32501 4.7249 7.32501 5.4249C7.30001 6.1749 7.32501 6.8999 7.32501 7.6749H10.225C10.625 7.6749 10.775 7.8249 10.775 8.2249V11.2499C10.775 11.6499 10.65 11.7749 10.225 11.7749C9.32501 11.7749 7.40001 11.7749 7.32501 11.7749V19.9249C7.32501 20.3499 7.20001 20.4999 6.75001 20.4999C5.70001 20.4999 4.67501 20.4999 3.62501 20.4999C3.25001 20.4999 3.10001 20.3499 3.10001 19.9749C3.10001 17.3499 3.10001 11.8749 3.10001 11.7999Z" fill="#022541"/>
</svg>
