<svg width="25" height="25" viewBox="0 0 25 25" fill="none" xmlns="http://www.w3.org/2000/svg">
<path d="M12.5 8.6792C10.3917 8.6792 8.67917 10.3917 8.67917 12.5C8.67917 14.6084 10.3917 16.325 12.5 16.325C14.6083 16.325 16.325 14.6084 16.325 12.5C16.325 10.3917 14.6083 8.6792 12.5 8.6792Z" fill="#022541"/>
<path d="M18.2667 2.08325H6.73334C4.17084 2.08325 2.08334 4.17075 2.08334 6.73325V18.2666C2.08334 20.8333 4.17084 22.9166 6.73334 22.9166H18.2667C20.8333 22.9166 22.9167 20.8333 22.9167 18.2666V6.73325C22.9167 4.17075 20.8333 2.08325 18.2667 2.08325ZM12.5 19.2499C8.77918 19.2499 5.75001 16.2208 5.75001 12.4999C5.75001 8.77909 8.77918 5.75409 12.5 5.75409C16.2208 5.75409 19.25 8.77909 19.25 12.4999C19.25 16.2208 16.2208 19.2499 12.5 19.2499ZM19.3917 6.97909C18.6042 6.97909 17.9625 6.34159 17.9625 5.55409C17.9625 4.76659 18.6042 4.12492 19.3917 4.12492C20.1792 4.12492 20.8208 4.76659 20.8208 5.55409C20.8208 6.34159 20.1792 6.97909 19.3917 6.97909Z" fill="#022541"/>
</svg>
