<svg width="25" height="25" viewBox="0 0 25 25" fill="none" xmlns="http://www.w3.org/2000/svg">
<path d="M22.2148 13.3746V16.8229C22.2148 20.996 18.8414 24.3694 14.6683 24.3694C10.4953 24.3694 7.09693 20.996 7.09693 16.8229V15.6485C3.39868 15.1237 0.625 11.9253 0.625 8.17704V1.70511C0.625 1.10539 1.09977 0.630615 1.69949 0.630615H4.94795C5.54766 0.630615 6.02244 1.10539 6.02244 1.70511C6.02244 2.30482 5.54766 2.7796 4.94795 2.7796H2.79897V8.17704C2.79897 11.1506 5.22282 13.5745 8.19641 13.5745C11.17 13.5745 13.5938 11.1506 13.5938 8.17704V2.7796H11.4449C10.8452 2.7796 10.3704 2.30482 10.3704 1.70511C10.3704 1.10539 10.8452 0.630615 11.4449 0.630615H14.6933C15.2431 0.630615 15.7428 1.10539 15.7428 1.70511V8.17704C15.7428 11.9253 12.9691 15.0988 9.2709 15.6485V16.8229C9.2709 19.7965 11.6947 22.2204 14.6683 22.2204C17.6419 22.2204 20.0658 19.7965 20.0658 16.8229V13.3746C18.3916 12.7749 17.492 10.9257 18.0917 9.25153C18.6914 7.57732 20.5406 6.67775 22.2148 7.27746C23.889 7.87718 24.7885 9.7263 24.1888 11.4005C23.864 12.3251 23.1143 13.0497 22.2148 13.3746Z" fill="#2E59A8"/>
</svg>
