<svg width="25" height="25" viewBox="0 0 25 25" fill="none" xmlns="http://www.w3.org/2000/svg">
<path d="M24.8473 8.4857L16.5142 0.152644C16.3111 -0.0504743 15.9809 -0.0504743 15.7778 0.152644L0.153315 15.7771C-0.0498029 15.9802 -0.0498029 16.3104 0.153315 16.5135L8.48637 24.8466C8.58739 24.9487 8.72074 24.9997 8.85408 24.9997C8.98743 24.9997 9.12072 24.9487 9.22282 24.8476L24.8473 9.22317C25.0504 9.01903 25.0504 8.68984 24.8473 8.4857ZM6.09793 14.4313L4.01465 16.5146C3.91256 16.6156 3.77926 16.6667 3.64592 16.6667C3.51257 16.6667 3.37928 16.6156 3.27718 16.5146C3.07406 16.3115 3.07406 15.9812 3.27718 15.7781L5.36046 13.6948C5.56357 13.4917 5.89379 13.4917 6.0969 13.6948C6.30002 13.898 6.30105 14.2271 6.09793 14.4313ZM15.0924 15.0927C14.7237 15.4615 14.2226 15.6386 13.6653 15.6386C12.7445 15.6386 11.6685 15.1563 10.7686 14.2553C10.1102 13.5969 9.64776 12.8095 9.46759 12.0387C9.26759 11.1794 9.43219 10.4315 9.9311 9.9315C10.4301 9.43152 11.1779 9.26692 12.0383 9.46799C12.8091 9.64821 13.5966 10.1096 14.2549 10.769C15.7017 12.2147 16.0705 14.1147 15.0924 15.0927ZM21.7224 9.22317L19.6391 11.3065C19.537 11.4075 19.4037 11.4585 19.2704 11.4585C19.137 11.4585 19.0037 11.4075 18.9016 11.3065C18.6985 11.1033 18.6985 10.7731 18.9016 10.57L20.9849 8.48673C21.188 8.28361 21.5182 8.28361 21.7214 8.48673C21.9245 8.68984 21.9255 9.01903 21.7224 9.22317Z" fill="#2E59A8"/>
</svg>
