<svg width="21" height="25" viewBox="0 0 21 25" fill="none" xmlns="http://www.w3.org/2000/svg">
<path d="M19.3527 2.83002H18.6217V20.789C18.6217 21.9821 17.6505 22.9532 16.4574 22.9532H9.05086H3.16113V23.6189C3.16113 24.3813 3.77987 25 4.54219 25H11.9461H19.35C20.1124 25 20.7311 24.3813 20.7311 23.6189V4.21107C20.7311 3.44875 20.115 2.83002 19.3527 2.83002Z" fill="#2E59A8"/>
<path d="M9.05093 22.17H16.4549C17.2172 22.17 17.8359 21.5513 17.8359 20.789V2.82999V1.38106C17.8359 0.618734 17.2172 0 16.4549 0H9.05093H6.58904V0.456871C6.59424 0.503864 6.59688 0.553467 6.59688 0.60307V3.6132V4.38596C6.59688 5.45896 5.7249 6.33093 4.65191 6.33093H3.87914H0.869014C0.829854 6.33093 0.788083 6.32832 0.748922 6.32571H0.268555V20.789C0.268555 21.5513 0.887289 22.17 1.64961 22.17H3.16381H9.05093ZM9.33027 17.476H4.5031C4.14282 17.476 3.85043 17.1836 3.85043 16.8233C3.85043 16.463 4.14282 16.1706 4.5031 16.1706H9.33288C9.69316 16.1706 9.98556 16.463 9.98556 16.8233C9.98556 17.1836 9.69055 17.476 9.33027 17.476ZM14.1601 14.1448H4.5031C4.14282 14.1448 3.85043 13.8523 3.85043 13.4921C3.85043 13.1318 4.14282 12.8394 4.5031 12.8394H14.1601C14.5203 12.8394 14.8127 13.1318 14.8127 13.4921C14.8127 13.8523 14.5203 14.1448 14.1601 14.1448ZM4.5031 9.3019H14.1601C14.5203 9.3019 14.8127 9.5943 14.8127 9.95457C14.8127 10.3148 14.5203 10.6072 14.1601 10.6072H4.5031C4.14282 10.6072 3.85043 10.3148 3.85043 9.95457C3.85043 9.5943 4.14282 9.3019 4.5031 9.3019Z" fill="#2E59A8"/>
<path d="M0.86924 5.54771H4.65213C4.65475 5.54771 4.65997 5.54771 4.66258 5.54771C5.29436 5.54249 5.80606 5.03079 5.81128 4.39901C5.81128 4.3964 5.81128 4.39117 5.81128 4.38856V0.603059C5.81128 0.253226 5.52411 0.020874 5.22651 0.020874C5.08292 0.020874 4.93934 0.0730879 4.81924 0.19318L0.45675 4.55565C0.0912528 4.92115 0.349712 5.54771 0.86924 5.54771Z" fill="#2E59A8"/>
</svg>
