<svg width="15" height="15" viewBox="0 0 15 15" fill="none" xmlns="http://www.w3.org/2000/svg">
<g clip-path="url(#clip0_116_75)">
<path d="M15 3.89999C15 8.67499 8.66875 15 3.89999 15C2.85624 15 1.88124 14.6062 1.16249 13.8875L0.537495 13.1687C-0.187505 12.4437 -0.187505 11.2187 0.568745 10.4625C0.587495 10.4437 2.09374 9.28749 2.09374 9.28749C2.84374 8.57499 4.02499 8.57499 4.76874 9.28749L5.68124 10.0187C7.68124 9.16874 9.09999 7.74374 10.0125 5.67499L9.28749 4.76249C8.56874 4.01874 8.56874 2.83124 9.28749 2.08749C9.28749 2.08749 10.4437 0.581238 10.4625 0.562488C11.2187 -0.193762 12.4437 -0.193762 13.2 0.562488L13.8562 1.13124C14.6062 1.87499 15 2.84999 15 3.89374V3.89999Z" fill="white"/>
</g>
<defs>
<clipPath id="clip0_116_75">
<rect width="15" height="15" fill="white"/>
</clipPath>
</defs>
</svg>
