<svg width="25" height="25" viewBox="0 0 25 25" fill="none" xmlns="http://www.w3.org/2000/svg">
<path d="M24.3179 10.193L23.0054 5.1955C22.6122 3.68749 21.5757 2.44042 20.1667 1.76835L16.5495 0.049409C16.4298 -0.00527855 16.2942 -0.0156301 16.1667 0.0259715C15.9296 0.065034 12.8905 1.51289 8.88018 0.0441355C8.77354 -0.010552 8.5962 -0.0209036 8.44522 0.049409L4.82803 1.76816C3.42178 2.44003 2.3878 3.6873 1.99464 5.19531L0.682136 10.193C0.622176 10.4195 0.723738 10.6592 0.927058 10.7762L5.02882 13.1381V22.034C5.02882 22.9506 5.61475 23.758 6.48448 24.0418C10.3257 25.2943 14.5185 25.3439 18.5159 24.0418C19.3857 23.7578 19.9716 22.9506 19.9716 22.034V13.1381L24.0733 10.776C24.2759 10.659 24.3776 10.4193 24.3179 10.193ZM12.4974 3.78652C10.9634 3.78652 9.67179 2.71894 9.32296 1.28652C11.8724 1.98183 13.5651 1.81249 15.672 1.28652C15.323 2.71874 14.0286 3.78652 12.4974 3.78652Z" fill="#2E59A8"/>
</svg>
