<svg width="22" height="25" viewBox="0 0 22 25" fill="none" xmlns="http://www.w3.org/2000/svg">
<path d="M21.1696 7.00932L21.1691 6.98635C21.1579 6.3883 21.1471 5.82306 21.1471 5.27937C21.1471 4.45541 20.4769 3.78565 19.6534 3.78565C16.4663 3.78565 14.0474 2.87686 12.0409 0.92569C11.4569 0.358103 10.542 0.358103 9.95802 0.92569C7.95201 2.87686 5.53309 3.78565 2.34646 3.78565C1.52296 3.78565 0.852733 4.45541 0.852733 5.27937C0.852733 5.8343 0.841953 6.40517 0.830236 7.00979C0.776336 9.83131 0.709314 13.3428 1.88761 16.5303C2.53581 18.2832 3.51678 19.806 4.80381 21.0574C6.26988 22.4827 8.18964 23.6132 10.5101 24.4175C10.6681 24.4723 10.8326 24.5 10.9995 24.5C11.1663 24.5 11.3313 24.4723 11.4888 24.4175C13.8093 23.6132 15.7295 22.4827 17.1956 21.0574C18.4826 19.806 19.4636 18.2828 20.1118 16.5303C21.2905 13.3423 21.2235 9.83084 21.1696 7.00932ZM16.0712 13.6694C16.0712 14.0575 15.7567 14.3724 15.3681 14.3724H13.1062V16.6348C13.1062 17.0229 12.7913 17.3378 12.4032 17.3378H9.59713C9.20905 17.3378 8.89409 17.0229 8.89409 16.6348V14.3724H6.63171C6.24316 14.3724 5.92867 14.0575 5.92867 13.6694V10.8633C5.92867 10.4752 6.24316 10.1603 6.63171 10.1603H8.89409V7.89791C8.89409 7.50983 9.20905 7.19487 9.59713 7.19487H12.4032C12.7913 7.19487 13.1062 7.50983 13.1062 7.89791V10.1603H15.3681C15.7567 10.1603 16.0712 10.4752 16.0712 10.8633V13.6694Z" fill="white"/>
</svg>
