<svg width="8" height="14" viewBox="0 0 8 14" fill="none" xmlns="http://www.w3.org/2000/svg">
<path d="M1.69169e-05 12.88V1.71C-0.00113818 1.51138 0.0568838 1.31691 0.166685 1.15139C0.276486 0.985868 0.433091 0.856797 0.616535 0.78063C0.799979 0.704464 1.00195 0.684652 1.1967 0.723722C1.39145 0.762791 1.57015 0.858972 1.71002 1L7.29002 6.59C7.47627 6.77736 7.58081 7.03082 7.58081 7.295C7.58081 7.55919 7.47627 7.81264 7.29002 8L1.71002 13.59C1.57015 13.731 1.39145 13.8272 1.1967 13.8663C1.00195 13.9054 0.799979 13.8855 0.616535 13.8094C0.433091 13.7332 0.276486 13.6041 0.166685 13.4386C0.0568838 13.2731 -0.00113818 13.0786 1.69169e-05 12.88Z" fill="white"/>
</svg>
